<?xml version="1.0" encoding="iso-8859-1"?>
<!-- Uploaded to: SVG Repo, www.svgrepo.com, Generator: SVG Repo Mixer Tools -->
<svg version="1.1" id="Layer_1" xmlns="http://www.w3.org/2000/svg" xmlns:xlink="http://www.w3.org/1999/xlink" 
	 viewBox="0 0 451.296 451.296" xml:space="preserve">
<circle style="fill:#E05B49;" cx="225.648" cy="225.638" r="225.638"/>
<path style="opacity:0.1;enable-background:new    ;" d="M451.172,230.925l-115.45-115.45l-17.091-17.091l-0.011,0.037
	c-1.02-1.305-2.223-2.081-3.552-2.081c-2.645,0.033-4.81,3.007-5.886,7.509l-5.464-5.465l-0.013,0.045
	c-1.008-1.261-2.188-2.011-3.492-1.995c-2.672,0-4.821,2.974-5.888,7.47l-5.519-5.52l-0.013,0.044
	c-1.006-1.228-2.18-1.963-3.483-1.947c-2.638,0-4.777,2.972-5.857,7.464l-5.56-5.561l-0.011,0.039
	c-0.994-1.182-2.148-1.895-3.427-1.895c-2.643,0-4.784,2.96-5.863,7.467l-5.611-5.611l-0.015,0.053
	c-0.986-1.159-2.12-1.862-3.367-1.862c-2.64,0.032-4.78,2.996-5.86,7.481l-5.672-5.672l-0.017,0.06
	c-0.973-1.115-2.085-1.789-3.308-1.774c-2.636,0-4.772,2.966-5.854,7.449l-5.734-5.734l-0.014,0.048
	c-0.961-1.078-2.054-1.731-3.254-1.716c-2.634,0-4.791,2.962-5.872,7.441l-5.773-5.773l-0.013,0.044
	c-0.948-1.033-2.022-1.664-3.198-1.664c-2.639,0-4.799,2.951-5.878,7.445l-5.824-5.825l-0.011,0.038
	c-0.934-1.001-1.989-1.613-3.143-1.613c-2.63,0.033-4.785,2.997-5.867,7.467l-5.892-5.892l-0.014,0.048
	c-0.92-0.961-1.954-1.543-3.083-1.529c-2.632,0-4.787,2.957-5.869,7.428l-5.947-5.947l-0.01,0.036
	c-0.906-0.925-1.922-1.482-3.03-1.468c-2.633,0-4.789,2.959-5.871,7.435l-6.002-6.003l-0.011,0.039
	c-0.893-0.889-1.889-1.425-2.973-1.425c-2.638,0-4.798,2.949-5.877,7.44l-6.052-6.053l-0.008,0.026
	c-0.879-0.854-1.858-1.365-2.919-1.365c-3.808,0.046-6.676,6.158-6.629,14.244h-4.795l0.141,35.259v0.659l0.047,14.526v0.659
	l0.094,14.526v0.612l0.047,14.527v0.658l0.047,14.527v0.611l0.094,14.527h-0.047l0.047,0.424v0.234l0.047,14.527v0.658l0.047,14.527
	v0.612l0.047,14.526v0.659h0.047l0.047,14.526v0.61l0.047,14.527v0.659l0.047,14.526v0.659l0.094,14.527h-0.047v0.611h0.047
	l0.047,14.526v0.659l0.047,10.531l96.314,96.314c1.009,0.014,2.006,0.076,3.019,0.076
	C348.502,451.296,448.354,353.102,451.172,230.925z"/>
<rect x="125.813" y="110.902" transform="matrix(-1 0.0039 -0.0039 -1 452.2051 464.5426)" style="fill:#FFFFFF;" width="199.664" height="243.63"/>
<g>
	<ellipse style="fill:#E1E6E9;" cx="133.136" cy="123.852" rx="3.584" ry="3.584"/>
	<ellipse style="fill:#E1E6E9;" cx="147.979" cy="123.799" rx="3.584" ry="3.584"/>
	<ellipse style="fill:#E1E6E9;" cx="162.821" cy="123.751" rx="3.584" ry="3.584"/>
	<ellipse style="fill:#E1E6E9;" cx="177.664" cy="123.697" rx="3.584" ry="3.584"/>
	<ellipse style="fill:#E1E6E9;" cx="192.501" cy="123.649" rx="3.584" ry="3.584"/>
	<ellipse style="fill:#E1E6E9;" cx="207.369" cy="123.596" rx="3.584" ry="3.584"/>
	<ellipse style="fill:#E1E6E9;" cx="222.166" cy="123.491" rx="3.584" ry="3.584"/>
	<ellipse style="fill:#E1E6E9;" cx="237.013" cy="123.443" rx="3.584" ry="3.584"/>
	<ellipse style="fill:#E1E6E9;" cx="251.861" cy="123.39" rx="3.584" ry="3.584"/>
	<ellipse style="fill:#E1E6E9;" cx="266.709" cy="123.341" rx="3.584" ry="3.584"/>
	<ellipse style="fill:#E1E6E9;" cx="281.551" cy="123.288" rx="3.584" ry="3.584"/>
	<ellipse style="fill:#E1E6E9;" cx="296.394" cy="123.224" rx="3.584" ry="3.584"/>
	<ellipse style="fill:#E1E6E9;" cx="311.252" cy="123.166" rx="3.584" ry="3.584"/>
</g>
<g>
	<path style="fill:#64798A;" d="M136.742,97.059c-3.812,0.015-6.663,6.129-6.631,14.224c0.014,3.639,0.63,6.831,1.627,9.288
		c1.124,2.774,2.749,4.537,4.643,4.791c0.212-0.46,0.338-0.967,0.336-1.506c0-0.126-0.025-0.246-0.039-0.37
		c-1.032-0.109-2.101-1.236-2.956-3.14c-0.976-2.171-1.672-5.312-1.687-9.07c-0.029-7.233,2.461-12.284,4.714-12.293
		c2.253-0.009,4.783,5.022,4.812,12.255l1.924-0.008C143.453,103.135,140.555,97.044,136.742,97.059z"/>
	<path style="fill:#64798A;" d="M151.602,97c-3.813,0.015-6.663,6.129-6.631,14.224c0.015,3.637,0.63,6.827,1.625,9.283
		c1.121,2.769,2.741,4.531,4.63,4.792c0.211-0.459,0.336-0.965,0.334-1.503c0-0.128-0.026-0.249-0.039-0.374
		c-1.026-0.12-2.087-1.242-2.938-3.134c-0.976-2.171-1.673-5.312-1.688-9.072c-0.028-7.233,2.462-12.284,4.715-12.293
		c2.253-0.009,4.783,5.022,4.811,12.255l1.924-0.008C158.313,103.077,155.414,96.985,151.602,97z"/>
	<path style="fill:#64798A;" d="M166.461,96.941c-3.813,0.015-6.663,6.13-6.631,14.224c0.015,3.634,0.63,6.823,1.623,9.278
		c1.118,2.764,2.734,4.525,4.617,4.794c0.21-0.458,0.334-0.963,0.332-1.5c0-0.13-0.026-0.253-0.04-0.379
		c-1.021-0.13-2.074-1.247-2.919-3.127c-0.976-2.171-1.674-5.313-1.689-9.073c-0.029-7.233,2.462-12.284,4.715-12.293
		c2.253-0.009,4.783,5.022,4.811,12.255l1.924-0.008C173.171,103.018,170.273,96.926,166.461,96.941z"/>
	<path style="fill:#64798A;" d="M181.319,96.883c-3.812,0.015-6.663,6.129-6.631,14.224c0.014,3.633,0.629,6.819,1.621,9.274
		c1.116,2.759,2.726,4.519,4.603,4.796c0.209-0.457,0.333-0.961,0.331-1.497c0-0.131-0.026-0.256-0.04-0.383
		c-1.015-0.141-2.061-1.252-2.901-3.121c-0.977-2.171-1.675-5.314-1.69-9.075c-0.029-7.233,2.462-12.284,4.714-12.293
		c2.253-0.009,4.783,5.022,4.812,12.255l1.924-0.008C188.03,102.96,185.132,96.868,181.319,96.883z"/>
	<path style="fill:#64798A;" d="M196.178,96.824c-3.812,0.015-6.663,6.129-6.631,14.224c0.014,3.631,0.628,6.815,1.619,9.269
		c1.112,2.754,2.718,4.513,4.589,4.797c0.208-0.456,0.331-0.959,0.329-1.494c0-0.133-0.026-0.259-0.04-0.388
		c-1.009-0.151-2.047-1.258-2.883-3.115c-0.977-2.171-1.676-5.314-1.69-9.077c-0.029-7.233,2.461-12.284,4.714-12.293
		c2.253-0.009,4.783,5.022,4.812,12.255l1.924-0.008C202.889,102.901,199.991,96.809,196.178,96.824z"/>
	<path style="fill:#64798A;" d="M211.037,96.766c-3.813,0.015-6.663,6.129-6.631,14.224c0.015,3.628,0.628,6.81,1.618,9.264
		c1.109,2.749,2.71,4.507,4.576,4.799c0.207-0.456,0.329-0.958,0.327-1.491c-0.001-0.134-0.026-0.262-0.041-0.393
		c-1.004-0.162-2.033-1.263-2.864-3.108c-0.978-2.171-1.676-5.315-1.691-9.078c-0.028-7.233,2.462-12.284,4.715-12.293
		c2.253-0.009,4.783,5.022,4.811,12.255l1.924-0.008C217.748,102.843,214.85,96.751,211.037,96.766z"/>
	<path style="fill:#64798A;" d="M225.896,96.707c-3.813,0.015-6.663,6.129-6.631,14.224c0.014,3.626,0.627,6.806,1.616,9.26
		c1.106,2.744,2.702,4.5,4.563,4.8c0.206-0.455,0.328-0.955,0.326-1.487c0-0.136-0.026-0.266-0.042-0.398
		c-0.998-0.171-2.02-1.268-2.846-3.101c-0.979-2.171-1.677-5.316-1.692-9.081c-0.029-7.233,2.462-12.284,4.715-12.293
		c2.253-0.009,4.783,5.022,4.811,12.255l1.924-0.008C232.607,102.784,229.709,96.692,225.896,96.707z"/>
	<path style="fill:#64798A;" d="M240.755,96.648c-3.812,0.015-6.663,6.129-6.631,14.224c0.014,3.624,0.626,6.803,1.614,9.255
		c1.103,2.739,2.693,4.495,4.549,4.802c0.205-0.454,0.326-0.954,0.324-1.485c-0.001-0.138-0.027-0.268-0.042-0.402
		c-0.992-0.181-2.006-1.274-2.828-3.094c-0.979-2.171-1.679-5.317-1.693-9.084c-0.029-7.233,2.462-12.284,4.714-12.293
		c2.253-0.009,4.783,5.022,4.812,12.255l1.924-0.008C247.466,102.725,244.568,96.633,240.755,96.648z"/>
	<path style="fill:#64798A;" d="M255.614,96.59c-3.812,0.015-6.663,6.129-6.631,14.224c0.014,3.621,0.625,6.798,1.612,9.251
		c1.1,2.734,2.686,4.489,4.536,4.803c0.204-0.453,0.324-0.952,0.322-1.481c0-0.14-0.026-0.272-0.042-0.407
		c-0.985-0.191-1.991-1.277-2.807-3.084c-0.981-2.171-1.682-5.319-1.697-9.089c-0.029-7.233,2.461-12.284,4.714-12.293
		c2.253-0.009,4.783,5.022,4.812,12.255l1.924-0.008C262.325,102.667,259.427,96.575,255.614,96.59z"/>
	<path style="fill:#64798A;" d="M270.473,96.531c-3.813,0.015-6.663,6.129-6.631,14.224c0.015,3.619,0.624,6.794,1.61,9.246
		c1.098,2.729,2.678,4.484,4.523,4.805c0.204-0.452,0.323-0.95,0.321-1.479c0-0.141-0.027-0.275-0.043-0.411
		c-0.978-0.2-1.976-1.281-2.786-3.073c-0.982-2.172-1.685-5.321-1.7-9.096c-0.028-7.233,2.462-12.284,4.715-12.293
		c2.253-0.009,4.783,5.022,4.811,12.255l1.924-0.008C277.184,102.608,274.286,96.516,270.473,96.531z"/>
	<path style="fill:#64798A;" d="M285.332,96.472c-3.813,0.015-6.663,6.13-6.631,14.224c0.014,3.617,0.624,6.79,1.608,9.241
		c1.094,2.724,2.67,4.478,4.509,4.807c0.203-0.451,0.321-0.948,0.319-1.475c0-0.143-0.027-0.278-0.044-0.417
		c-0.972-0.21-1.961-1.284-2.766-3.061c-0.984-2.172-1.688-5.324-1.703-9.102c-0.029-7.233,2.462-12.284,4.715-12.293
		c2.253-0.009,4.783,5.022,4.811,12.255l1.924-0.008C292.043,102.549,289.145,96.457,285.332,96.472z"/>
	<path style="fill:#64798A;" d="M300.191,96.414c-3.812,0.015-6.663,6.129-6.631,14.224c0.014,3.614,0.623,6.786,1.606,9.236
		c1.092,2.719,2.662,4.472,4.496,4.808c0.202-0.45,0.319-0.946,0.317-1.472c-0.001-0.144-0.027-0.281-0.044-0.421
		c-0.965-0.219-1.946-1.289-2.746-3.051c-0.985-2.172-1.691-5.326-1.706-9.108c-0.029-7.233,2.462-12.284,4.714-12.293
		c2.253-0.009,4.783,5.022,4.812,12.255l1.924-0.008C306.902,102.491,304.004,96.399,300.191,96.414z"/>
	<path style="fill:#64798A;" d="M315.05,96.355c-3.811,0.015-6.662,6.129-6.63,14.224c0.015,3.612,0.622,6.782,1.605,9.231
		c1.088,2.715,2.654,4.467,4.481,4.811c0.201-0.45,0.318-0.944,0.315-1.469c0-0.146-0.027-0.285-0.045-0.426
		c-0.958-0.228-1.929-1.292-2.723-3.039c-0.987-2.172-1.694-5.329-1.709-9.115c-0.028-7.233,2.462-12.284,4.713-12.293
		c2.253-0.009,4.783,5.022,4.812,12.255l1.924-0.008C321.761,102.432,318.863,96.34,315.05,96.355z"/>
</g>
<g>
	
		<rect x="125.473" y="146.17" transform="matrix(-1 0.0039 -0.0039 -1 451.1859 292.092)" style="fill:#EBF0F3;" width="199.664" height="0.64"/>
	
		<rect x="125.533" y="161.335" transform="matrix(-1 0.0039 -0.0039 -1 451.3652 322.4218)" style="fill:#EBF0F3;" width="199.664" height="0.64"/>
	
		<rect x="125.593" y="176.485" transform="matrix(-1 0.0039 -0.0039 -1 451.5443 352.7209)" style="fill:#EBF0F3;" width="199.664" height="0.64"/>
	
		<rect x="125.653" y="191.691" transform="matrix(-1 0.0039 -0.0039 -1 451.724 383.1325)" style="fill:#EBF0F3;" width="199.664" height="0.64"/>
	
		<rect x="125.712" y="206.846" transform="matrix(-1 0.0039 -0.0039 -1 451.9031 413.4418)" style="fill:#EBF0F3;" width="199.664" height="0.64"/>
	
		<rect x="125.772" y="222.001" transform="matrix(-1 0.0039 -0.0039 -1 452.0823 443.7511)" style="fill:#EBF0F3;" width="199.664" height="0.64"/>
	
		<rect x="125.832" y="237.161" transform="matrix(-1 0.0039 -0.0039 -1 452.2614 474.0706)" style="fill:#EBF0F3;" width="199.664" height="0.64"/>
	
		<rect x="125.891" y="252.316" transform="matrix(-1 0.0039 -0.0039 -1 452.4405 504.3798)" style="fill:#EBF0F3;" width="199.664" height="0.64"/>
	
		<rect x="125.951" y="267.522" transform="matrix(-1 0.0039 -0.0039 -1 452.6203 534.7915)" style="fill:#EBF0F3;" width="199.664" height="0.64"/>
	
		<rect x="126.011" y="282.676" transform="matrix(-1 0.0039 -0.0039 -1 452.7994 565.1008)" style="fill:#EBF0F3;" width="199.664" height="0.64"/>
	
		<rect x="126.071" y="297.831" transform="matrix(-1 0.0039 -0.0039 -1 452.9785 595.41)" style="fill:#EBF0F3;" width="199.664" height="0.64"/>
	
		<rect x="126.13" y="312.986" transform="matrix(-1 0.0039 -0.0039 -1 453.1577 625.7193)" style="fill:#EBF0F3;" width="199.664" height="0.64"/>
	
		<rect x="126.19" y="328.141" transform="matrix(-1 0.0039 -0.0039 -1 453.3368 656.0286)" style="fill:#EBF0F3;" width="199.664" height="0.64"/>
	
		<rect x="126.25" y="343.331" transform="matrix(-1 0.0039 -0.0039 -1 453.5163 686.4095)" style="fill:#EBF0F3;" width="199.664" height="0.64"/>
</g>
<path style="fill:#EFCAAB;" d="M219.066,223.119l-3.446-3.419c-0.292-0.29-0.635-0.523-1.011-0.689l-14.656-6.448
	c-0.262,0.941-0.735,1.836-1.472,2.579c-0.737,0.743-1.628,1.222-2.567,1.492l6.563,14.605c0.168,0.375,0.405,0.716,0.697,1.006
	l3.446,3.419L219.066,223.119z"/>
<path style="fill:#E56353;" d="M297.916,326.242c0.724,0.718,1.893,0.714,2.611-0.01l9.846-9.924
	c0.718-0.724,0.714-1.893-0.01-2.611l-9.496-9.422l-12.446,12.545L297.916,326.242z"/>
<path style="fill:#F6C358;" d="M211.47,219.732L211.47,219.732c1.146-1.155,3.01-1.162,4.165-0.016l85.23,84.561l-4.148,4.182
	l-85.231-84.561C210.332,222.751,210.324,220.886,211.47,219.732z"/>
<path style="fill:#FCD462;" d="M207.321,223.913L207.321,223.913c1.146-1.155,3.011-1.162,4.165-0.016l85.231,84.561l-4.149,4.181
	l-85.231-84.561C206.183,226.933,206.175,225.068,207.321,223.913z"/>
<path style="fill:#F6C358;" d="M203.172,228.095L203.172,228.095c1.146-1.155,3.011-1.162,4.165-0.016l85.231,84.561l-4.149,4.182
	l-85.231-84.561C202.034,231.114,202.027,229.249,203.172,228.095z"/>
<path style="fill:#64798A;" d="M199.953,212.564l-5.581-2.455c-0.61-0.268-1.23,0.356-0.957,0.964l2.499,5.562
	c0.939-0.27,1.83-0.749,2.567-1.492C199.218,214.4,199.691,213.505,199.953,212.564z"/>
</svg>